<svg width="59" height="30" viewBox="0 0 59 30" fill="none" xmlns="http://www.w3.org/2000/svg">
<rect x="0.68042" y="0.5" width="29" height="29" rx="14.5" fill="#6548EE"/>
<rect x="0.68042" y="0.5" width="29" height="29" rx="14.5" stroke="white"/>
<path d="M7.56146 20.5V10.3182H9.71416V18.7251H14.0792V20.5H7.56146ZM15.5048 20.5V10.3182H19.5219C20.2941 10.3182 20.952 10.4657 21.4956 10.7607C22.0391 11.0523 22.4534 11.4583 22.7385 11.9787C23.0268 12.4957 23.171 13.0923 23.171 13.7685C23.171 14.4446 23.0252 15.0412 22.7335 15.5582C22.4418 16.0753 22.0193 16.478 21.4658 16.7663C20.9156 17.0547 20.2494 17.1989 19.4672 17.1989H16.9068V15.4737H19.1192C19.5335 15.4737 19.8748 15.4025 20.1433 15.2599C20.4151 15.1141 20.6173 14.9136 20.7498 14.6584C20.8857 14.3999 20.9537 14.1032 20.9537 13.7685C20.9537 13.4304 20.8857 13.1354 20.7498 12.8835C20.6173 12.6283 20.4151 12.4311 20.1433 12.2919C19.8715 12.1494 19.5268 12.0781 19.1092 12.0781H17.6575V20.5H15.5048Z" fill="white"/>
<rect x="15.0902" y="0.5" width="29" height="29" rx="14.5" fill="#3079E1"/>
<rect x="15.0902" y="0.5" width="29" height="29" rx="14.5" stroke="white"/>
<path d="M21.9712 20.5V10.3182H24.1239V18.7251H28.489V20.5H21.9712ZM29.9146 20.5V10.3182H33.9317C34.7039 10.3182 35.3618 10.4657 35.9054 10.7607C36.4489 11.0523 36.8632 11.4583 37.1483 11.9787C37.4366 12.4957 37.5808 13.0923 37.5808 13.7685C37.5808 14.4446 37.435 15.0412 37.1433 15.5582C36.8516 16.0753 36.429 16.478 35.8755 16.7663C35.3254 17.0547 34.6592 17.1989 33.877 17.1989H31.3166V15.4737H33.529C33.9433 15.4737 34.2846 15.4025 34.5531 15.2599C34.8249 15.1141 35.0271 14.9136 35.1596 14.6584C35.2955 14.3999 35.3635 14.1032 35.3635 13.7685C35.3635 13.4304 35.2955 13.1354 35.1596 12.8835C35.0271 12.6283 34.8249 12.4311 34.5531 12.2919C34.2813 12.1494 33.9366 12.0781 33.519 12.0781H32.0673V20.5H29.9146Z" fill="white"/>
<rect x="29.5" y="0.5" width="29" height="29" rx="14.5" fill="#E9407A"/>
<rect x="29.5" y="0.5" width="29" height="29" rx="14.5" stroke="white"/>
<path d="M36.381 20.5V10.3182H38.5337V18.7251H42.8988V20.5H36.381ZM44.3244 20.5V10.3182H48.3414C49.1137 10.3182 49.7716 10.4657 50.3152 10.7607C50.8587 11.0523 51.273 11.4583 51.5581 11.9787C51.8464 12.4957 51.9906 13.0923 51.9906 13.7685C51.9906 14.4446 51.8448 15.0412 51.5531 15.5582C51.2614 16.0753 50.8388 16.478 50.2853 16.7663C49.7351 17.0547 49.069 17.1989 48.2868 17.1989H45.7264V15.4737H47.9387C48.353 15.4737 48.6944 15.4025 48.9629 15.2599C49.2347 15.1141 49.4368 14.9136 49.5694 14.6584C49.7053 14.3999 49.7733 14.1032 49.7733 13.7685C49.7733 13.4304 49.7053 13.1354 49.5694 12.8835C49.4368 12.6283 49.2347 12.4311 48.9629 12.2919C48.6911 12.1494 48.3464 12.0781 47.9288 12.0781H46.4771V20.5H44.3244Z" fill="white"/>
</svg>
