<svg width="30" height="30" viewBox="0 0 30 30" fill="none" xmlns="http://www.w3.org/2000/svg">
<rect width="30" height="30" rx="15" fill="white"/>
<path d="M15.4167 11.6667C16.5673 11.6667 17.5 10.7339 17.5 9.58333C17.5 8.43274 16.5673 7.5 15.4167 7.5C14.2661 7.5 13.3333 8.43274 13.3333 9.58333C13.3333 10.7339 14.2661 11.6667 15.4167 11.6667Z" fill="#1C4980"/>
<path d="M15.4167 17.5C16.5673 17.5 17.5 16.5673 17.5 15.4167C17.5 14.2661 16.5673 13.3333 15.4167 13.3333C14.2661 13.3333 13.3333 14.2661 13.3333 15.4167C13.3333 16.5673 14.2661 17.5 15.4167 17.5Z" fill="#1C4980"/>
<path d="M15.4167 23.3333C16.5673 23.3333 17.5 22.4006 17.5 21.25C17.5 20.0994 16.5673 19.1667 15.4167 19.1667C14.2661 19.1667 13.3333 20.0994 13.3333 21.25C13.3333 22.4006 14.2661 23.3333 15.4167 23.3333Z" fill="#1C4980"/>
</svg>
